<?xml version="1.0" encoding="UTF-8"?>
<svg width="700pt" height="700pt" version="1.1" viewBox="0 0 700 700" xmlns="http://www.w3.org/2000/svg">
 <g fill-rule="evenodd">
  <path d="m414.43 107.24c-21.535-1.2617-43.195 3.5195-62.617 11.449-25.871 10.566-50.059 26.637-69.488 46.895-19.828 20.676-36.625 45.906-45.355 73.828-4.8828 15.605-5.8125 37.047-5.9141 55.27-0.10156 18.219 0.88672 32.98 0.88672 32.98l0.30859 4.6836 4.0312 2.3242s30.23 17.645 48.465 24.574c21.637 8.2227 44.133 13.574 66.547 17.465 37.57 6.5195 77.07 14.652 116.96 10.117 22.875-2.6016 53.285-12.656 78.613-22.012 25.328-9.3555 45.324-18.117 45.324-18.117l4.957-2.1523 0.27344-5.4023s2.3984-39.848-0.85547-62.035c-3.8164-26.047-8.0078-54.586-22.832-79.059-15.684-25.891-39.297-46.824-64.906-61.797-28.41-16.613-61.383-27.094-94.402-29.02zm-1.0234 17.465c29.988 1.75 60.504 11.414 86.578 26.66 23.504 13.746 45.031 32.98 58.824 55.746 12.402 20.473 16.672 46.578 20.473 72.527 2.3398 15.973 0.88281 46.754 0.61719 53.148-3.9375 1.6992-17.219 7.5508-39.066 15.621-24.812 9.1641-55.137 18.812-74.547 21.02-36.215 4.1172-74.07-3.4023-111.97-9.9805-21.695-3.7656-43.156-8.8594-63.371-16.543-13.383-5.0859-36.812-18.477-41.664-21.227-0.20312-3.4492-0.80078-12.023-0.71875-26.898 0.097656-17.539 1.4961-38.645 5.0938-50.141 7.7109-24.66 22.984-47.84 41.289-66.922 17.594-18.34 39.863-33.172 63.504-42.828 17.465-7.1328 36.719-11.246 54.961-10.184z"/>
  <path d="m235.88 317.79s-76.82 39.641-119.36 63.539c-7.7031 4.3281-11.758 12.012-13.602 19.652-1.8477 7.6445-1.6758 15.691 1.2656 22.969 2.875 7.1094 8.2344 12.715 14.629 16.68s14.094 6.4414 22.184 4.8867c13.66-2.6211 29.09-11.152 42.109-18.934 13.02-7.7852 23.207-15.004 23.207-15.004l-10.152-14.254s-9.6797 6.8594-22.047 14.254c-12.367 7.3906-27.871 15.109-36.402 16.746-2.2461 0.4375-6.1016-0.35156-9.6719-2.5625-3.5703-2.2148-6.5547-5.7266-7.6211-8.375-1.1602-2.8711-1.5273-7.9727-0.48047-12.305 1.0469-4.3359 3.3242-7.4453 5.1602-8.4766 41.898-23.539 118.81-63.266 118.81-63.266z"/>
  <path d="m462.55 373.12s-11.402 13.23-26.422 28.848c-15.016 15.617-33.891 33.625-47.133 42.316-14.969 9.8242-30.754 18.914-45.801 19.484-18.973 0.71875-39.078-9.8281-59.129-19.961-20.871-10.551-37.773-33.707-64.531-45.801-15.227-6.8828-37.309-11.918-56.09-15.586s-34.109-5.7734-34.109-5.7734l-2.3594 17.363s14.863 2.0391 33.121 5.6055c18.258 3.5664 40.066 8.8594 52.227 14.355 21.09 9.5312 37.859 32.32 63.848 45.457 19.672 9.9453 42.168 22.773 67.676 21.809 21.215-0.80469 39.387-12.23 54.754-22.32 15.961-10.477 34.766-28.82 50.141-44.809s27.07-29.566 27.07-29.566l-13.262-11.414z"/>
  <path d="m373.14 113.5s-36.902 44.352-50.621 72.906c-13.004 27.062-21.52 56.52-25.531 86.168-3.9883 29.48 1.4688 83.191 1.4688 83.191l17.43-1.6445s-4.8438-55.051-1.5703-79.23c3.7773-27.906 11.809-55.617 23.961-80.902 11.305-23.531 48.363-69.387 48.363-69.387l-13.5-11.105z"/>
  <path d="m442.08 113.43-14.559 9.707s26.547 40.453 33.871 60.09c11.898 31.891 20.16 65.727 20.336 99.055 0.078126 14.57-4.3867 38.5-8.9883 58.141-4.6016 19.641-9.2305 35.238-9.2305 35.238l16.781 4.957s4.7773-16.027 9.5039-36.195c4.7227-20.172 9.5312-44.219 9.4336-62.207-0.19141-36.141-9.0469-71.906-21.43-105.1-9.2148-24.707-35.719-63.676-35.719-63.676z"/>
  <path d="m401.47 79.145c-9.8281 1.5742-16.648 8.2266-21.055 15.004-3.5039 5.375-4.1602 10.695-4.8516 15.348s-0.85547 8.5117-0.85547 8.5117l17.465 0.82422s0.16797-3.0625 0.71875-6.7656 0.61719-5.9336 2.1875-8.3398c2.1211-3.2539 5.3047-6.5508 9.125-7.2461 5.3203-0.96094 11.668 1.0859 15.449 4.957 2.418 2.4727 2.2461 5.2031 2.9414 9.9453 0.69531 4.7461 0.75391 8.8516 0.75391 8.8516l17.5-0.28125s-0.042968-5.0977-0.92187-11.105c-0.87891-6.0039-1.6953-13.066-7.418-19.277-8.0078-8.668-19.859-12.164-31.035-10.391z"/>
  <path d="m413.68 394.55c-0.83203 0.035156-1.6406 0.30859-2.3242 0.78516l-68.359 45.938c-0.96484 0.64844-1.6328 1.6523-1.8555 2.7969-0.22656 1.1406 0.011719 2.3242 0.66016 3.2891 1.3516 2.0078 4.0742 2.543 6.082 1.1953l68.359-45.938c1.6797-1.0664 2.4336-3.1289 1.8281-5.0234-0.60156-1.8945-2.4023-3.1445-4.3906-3.043z"/>
  <path d="m387.05 147.37c-0.99609 0-1.957 0.33984-2.7344 0.96094l-39.922 30.625c-0.92578 0.70703-1.5312 1.75-1.6836 2.9023-0.15234 1.1523 0.16016 2.3203 0.86719 3.2422s1.7539 1.5273 2.9102 1.6758c1.1523 0.14844 2.3203-0.16797 3.2383-0.88281l39.922-30.625c1.5195-1.1211 2.1484-3.0938 1.5586-4.8867-0.58984-1.793-2.2656-3.0078-4.1562-3.0078z"/>
  <path d="m383.26 167.05c-0.99219-0.011719-1.957 0.31641-2.7344 0.92578l-51.406 38.828c-1.0039 0.66797-1.6875 1.7227-1.8867 2.9102-0.20312 1.1875 0.09375 2.4062 0.82031 3.3672 0.72656 0.96094 1.8164 1.582 3.0156 1.7148 1.1953 0.12891 2.3945-0.23828 3.3125-1.0195l51.406-38.828c1.5117-1.1133 2.1445-3.0664 1.5703-4.8555-0.57422-1.7852-2.2227-3.0117-4.0977-3.0391z"/>
  <path d="m384.73 187.29c-0.98047 0.035157-1.918 0.39844-2.668 1.0312l-64.531 52.5c-0.92578 0.72266-1.5195 1.7852-1.6562 2.9531-0.13281 1.1641 0.20703 2.3359 0.94531 3.25 0.73828 0.91406 1.8125 1.4922 2.9844 1.6016 1.168 0.11328 2.332-0.24609 3.2305-1l64.531-52.5c1.4961-1.168 2.0742-3.1641 1.4258-4.9453-0.64453-1.7852-2.3672-2.9492-4.2617-2.8828z"/>
  <path d="m380.35 212.45c-0.99219 0.027344-1.9414 0.39063-2.6992 1.0312l-70 57.422c-0.95312 0.71875-1.5703 1.793-1.7109 2.9727-0.14453 1.1836 0.20312 2.3711 0.95703 3.293 0.75391 0.92188 1.8516 1.4961 3.0391 1.5938 1.1875 0.09375 2.3594-0.30078 3.25-1.0898l70-57.422c1.4688-1.1719 2.0234-3.1523 1.3828-4.9141-0.64453-1.7656-2.3398-2.9258-4.2188-2.8789z"/>
  <path d="m377.41 237.05c-0.98047 0.074218-1.9062 0.48437-2.6289 1.1523l-67.266 60.156c-1.8047 1.6133-1.957 4.3867-0.34375 6.1875 1.6133 1.8047 4.3828 1.957 6.1875 0.34375l67.266-60.156c1.4492-1.2344 1.9336-3.2617 1.2031-5.0195-0.73438-1.7578-2.5195-2.8359-4.418-2.6719z"/>
  <path d="m371.91 259.48c-0.98438 0.078126-1.9102 0.48438-2.6328 1.1523l-65.078 59.062c-1.793 1.625-1.9297 4.3945-0.30859 6.1875 1.625 1.793 4.3945 1.9336 6.1875 0.30859l65.078-59.062c1.4258-1.2422 1.8906-3.2617 1.1523-5.0039-0.73828-1.7422-2.5156-2.8125-4.3984-2.6523z"/>
  <path d="m373.28 286.82c-0.99219 0.027344-1.9453 0.39063-2.7031 1.0312l-67.812 54.688c-0.92578 0.72266-1.5195 1.7852-1.6562 2.9531-0.13281 1.1641 0.20703 2.3359 0.94531 3.25 0.73828 0.91406 1.8125 1.4922 2.9844 1.6016 1.168 0.11328 2.332-0.24609 3.2305-1l67.812-54.688c1.4922-1.1641 2.0703-3.1484 1.4336-4.9297-0.64062-1.7773-2.3477-2.9492-4.2344-2.8984z"/>
  <path d="m377.48 309.24c-0.98828 0.058593-1.9297 0.45312-2.668 1.1172l-47.578 41.562c-1.8203 1.5977-2.0039 4.3672-0.40625 6.1875 1.5938 1.8203 4.3633 2.0039 6.1836 0.41016l47.578-41.562c1.457-1.2148 1.9648-3.2344 1.2578-4.9961-0.71094-1.7578-2.4727-2.8633-4.3672-2.7305z"/>
 </g>
</svg>
