<svg version="1.1" id="Layer_1" xmlns="http://www.w3.org/2000/svg" xmlns:xlink="http://www.w3.org/1999/xlink" x="0px" y="0px"
	 width="100%" viewBox="0 0 512 512" enable-background="new 0 0 512 512" xml:space="preserve">
<path fill="#FFFFFF" opacity="1.000000" stroke="none" 
	d="
M321.000000,0.999996 
	C384.970825,1.000000 448.941650,1.000000 512.956238,1.000000 
	C512.956238,171.559662 512.956238,342.119354 512.956238,513.000000 
	C429.312164,513.000000 345.623932,513.000000 261.628906,512.692505 
	C289.298798,497.231323 317.258331,482.045837 345.258240,466.935150 
	C363.979675,456.831818 382.784912,446.883545 401.495636,436.760498 
	C407.104584,433.725861 412.521576,430.336395 418.385620,427.040955 
	C427.012329,422.571777 435.236389,418.086395 443.564697,413.803680 
	C448.205688,411.417114 450.080078,407.972900 450.065308,402.662720 
	C449.936676,356.446167 450.012756,310.228973 450.350464,263.876892 
	C462.803070,257.118103 474.933228,250.494431 487.297363,243.825867 
	C487.808777,243.593704 487.988861,243.337860 488.037476,243.014816 
	C488.003357,243.016174 488.033569,243.077408 488.391174,243.017151 
	C492.830658,240.797668 496.885834,238.586014 500.999847,236.489807 
	C510.644897,231.575348 511.557953,226.123184 503.917938,218.468658 
	C491.096741,205.623016 478.278503,192.774200 465.408020,179.978012 
	C461.298798,175.892502 457.027924,171.969604 453.022888,167.687408 
	C454.747803,166.163803 456.419556,165.061600 457.792480,163.665482 
	C473.636749,147.553772 489.429688,131.391617 505.250000,115.256348 
	C510.862183,109.532463 510.197723,104.493263 503.148834,100.614601 
	C494.786865,96.013435 486.348022,91.552307 477.970215,86.979660 
	C448.798767,71.057762 419.668732,55.059624 390.464600,39.197990 
	C371.806549,29.064291 353.020264,19.166979 334.348969,9.057482 
	C329.783508,6.585541 325.443604,3.696993 321.000000,0.999996 
z"/>
<path fill="#FFFFFF" opacity="1.000000" stroke="none" 
	d="
M253.000000,513.000000 
	C169.038315,513.000000 85.076622,513.000000 1.057468,513.000000 
	C1.057468,342.449493 1.057468,171.898987 1.057468,1.000000 
	C64.687675,1.000000 128.375992,1.000000 192.403717,1.323637 
	C183.949554,6.523385 175.186279,11.455100 166.356567,16.264837 
	C143.012314,28.980970 119.658989,41.680767 96.271988,54.318073 
	C73.895248,66.409492 51.462429,78.397079 29.074360,90.467590 
	C22.682859,93.913567 16.311153,97.402359 10.022302,101.030861 
	C4.078616,104.460205 3.343692,109.676781 8.053569,114.527534 
	C21.141300,128.006714 34.242569,141.473129 47.410793,154.873550 
	C51.815815,159.356247 56.439152,163.624390 60.662552,168.129761 
	C55.990242,172.597351 51.602058,176.909714 47.248955,181.257202 
	C34.539917,193.949829 21.798059,206.610168 9.164689,219.377762 
	C3.099726,225.507156 3.691951,231.505997 10.595447,235.247345 
	C28.349401,244.869125 46.137810,254.427338 63.936367,264.478333 
	C63.966961,310.939636 64.024597,356.933685 63.908901,402.927338 
	C63.896000,408.057343 65.783348,411.389221 70.254105,413.717010 
	C76.119370,416.770905 81.816574,420.145569 87.632454,423.296600 
	C112.375374,436.702393 137.118423,450.108154 161.894165,463.453125 
	C184.926086,475.858795 208.022263,488.145294 231.041595,500.574188 
	C238.440445,504.569092 245.684906,508.849976 253.000000,513.000000 
z"/>
<path fill="#F2C397" opacity="1.000000" stroke="none" 
	d="
M253.399994,513.000000 
	C245.684906,508.849976 238.440445,504.569092 231.041595,500.574188 
	C208.022263,488.145294 184.926086,475.858795 161.894165,463.453125 
	C137.118423,450.108154 112.375374,436.702393 87.632454,423.296600 
	C81.816574,420.145569 76.119370,416.770905 70.254105,413.717010 
	C65.783348,411.389221 63.896000,408.057343 63.908901,402.927338 
	C64.024597,356.933685 63.966961,310.939636 64.305649,264.505676 
	C79.909355,272.122955 95.223816,280.076050 110.413696,288.260437 
	C137.437607,302.821045 164.358810,317.572296 191.384750,332.129120 
	C198.376129,335.894836 200.028656,335.459076 205.706390,329.787048 
	C221.125488,314.383362 236.525894,298.960968 251.952271,283.564545 
	C253.552261,281.967682 255.276749,280.495514 256.961609,279.436005 
	C256.986511,357.604340 256.993256,435.302155 257.000000,513.000000 
	C255.933334,513.000000 254.866653,513.000000 253.399994,513.000000 
z"/>
<path fill="#E2AE83" opacity="1.000000" stroke="none" 
	d="
M257.399994,513.000000 
	C256.993256,435.302155 256.986511,357.604340 256.977081,279.192871 
	C256.974426,278.479279 256.993530,277.991821 257.262939,278.183411 
	C258.822174,279.884735 260.018158,281.488007 261.416107,282.889923 
	C277.271179,298.790283 293.154297,314.662659 309.036438,330.536011 
	C314.354889,335.851501 315.730347,336.203400 322.550354,332.685730 
	C330.806702,328.427216 338.923096,323.896301 347.082275,319.450653 
	C361.211975,311.751862 375.286041,303.949768 389.464203,296.341583 
	C399.238953,291.096313 409.149902,286.104858 419.003906,281.468628 
	C419.008453,327.544403 419.026306,373.151520 418.967651,418.758545 
	C418.964081,421.542603 418.354248,424.325867 418.026550,427.109497 
	C412.521576,430.336395 407.104584,433.725861 401.495636,436.760498 
	C382.784912,446.883545 363.979675,456.831818 345.258240,466.935150 
	C317.258331,482.045837 289.298798,497.231323 261.161072,512.692505 
	C259.933319,513.000000 258.866669,513.000000 257.399994,513.000000 
z"/>
<path fill="#E2AE83" opacity="1.000000" stroke="none" 
	d="
M60.962700,167.990601 
	C56.439152,163.624390 51.815815,159.356247 47.410793,154.873550 
	C34.242569,141.473129 21.141300,128.006714 8.053569,114.527534 
	C3.343692,109.676781 4.078616,104.460205 10.022302,101.030861 
	C16.311153,97.402359 22.682859,93.913567 29.074360,90.467590 
	C51.462429,78.397079 73.895248,66.409492 96.271988,54.318073 
	C119.658989,41.680767 143.012314,28.980970 166.356567,16.264837 
	C175.186279,11.455100 183.949554,6.523385 192.871552,1.323637 
	C195.700012,1.000000 198.400024,1.000000 201.666702,1.313143 
	C217.931305,17.359945 233.643661,33.079273 249.313232,48.841137 
	C251.977570,51.521187 254.458420,54.383682 257.016266,57.575211 
	C256.994843,59.643764 256.981171,61.298996 256.700989,63.159828 
	C253.604126,65.580971 251.012482,68.231361 247.902908,69.938110 
	C233.034302,78.099007 217.997665,85.952881 203.071686,94.010246 
	C166.643723,113.674866 130.232834,133.371201 93.840538,153.101715 
	C84.796898,158.004868 75.849960,163.086380 66.438858,168.064865 
	C64.333664,168.026077 62.648182,168.008347 60.962700,167.990601 
z"/>
<path fill="#D39C72" opacity="1.000000" stroke="none" 
	d="
M256.967529,62.954224 
	C256.981171,61.298996 256.994843,59.643764 257.302704,57.384544 
	C258.713837,55.371044 259.708801,53.840595 260.967285,52.571468 
	C269.723358,43.741524 278.566711,34.998119 287.317841,26.163317 
	C295.586090,17.815998 303.775757,9.390895 312.000000,1.000000 
	C314.700012,1.000000 317.400024,1.000000 320.550018,0.999996 
	C325.443604,3.696993 329.783508,6.585541 334.348969,9.057482 
	C353.020264,19.166979 371.806549,29.064291 390.464600,39.197990 
	C419.668732,55.059624 448.798767,71.057762 477.970215,86.979660 
	C486.348022,91.552307 494.786865,96.013435 503.148834,100.614601 
	C510.197723,104.493263 510.862183,109.532463 505.250000,115.256348 
	C489.429688,131.391617 473.636749,147.553772 457.792480,163.665482 
	C456.419556,165.061600 454.747803,166.163803 452.607880,167.695663 
	C450.330841,167.990067 448.660736,167.991333 446.792023,167.715958 
	C441.630402,164.741058 436.672516,162.033340 431.703552,159.346161 
	C407.297607,146.147614 382.903015,132.927948 358.477264,119.766197 
	C327.465393,103.055565 296.400787,86.442345 265.441345,69.635292 
	C262.325897,67.944000 259.778534,65.206299 256.967529,62.954224 
z"/>
<path fill="#FFFFFF" opacity="1.000000" stroke="none" 
	d="
M311.531342,1.000000 
	C303.775757,9.390895 295.586090,17.815998 287.317841,26.163317 
	C278.566711,34.998119 269.723358,43.741524 260.967285,52.571468 
	C259.708801,53.840595 258.713837,55.371044 257.310486,56.971222 
	C254.458420,54.383682 251.977570,51.521187 249.313232,48.841137 
	C233.643661,33.079273 217.931305,17.359945 202.116684,1.313143 
	C238.354233,1.000000 274.708466,1.000000 311.531342,1.000000 
z"/>
<path fill="#F2C397" opacity="1.000000" stroke="none" 
	d="
M419.000000,281.000000 
	C409.149902,286.104858 399.238953,291.096313 389.464203,296.341583 
	C375.286041,303.949768 361.211975,311.751862 347.082275,319.450653 
	C338.923096,323.896301 330.806702,328.427216 322.550354,332.685730 
	C315.730347,336.203400 314.354889,335.851501 309.036438,330.536011 
	C293.154297,314.662659 277.271179,298.790283 261.416107,282.889923 
	C260.018158,281.488007 258.822174,279.884735 257.262756,277.781891 
	C256.983704,275.849731 256.974274,274.510681 257.231171,272.946106 
	C259.122070,271.107178 260.481445,269.008484 262.411377,267.953918 
	C287.060516,254.484924 311.794525,241.171356 336.500427,227.806244 
	C356.530518,216.970612 376.525177,206.069122 396.587982,195.294418 
	C406.972290,189.717529 417.470428,184.352554 428.324066,178.920929 
	C431.625397,180.271637 435.165894,180.930450 437.310730,183.021103 
	C452.663269,197.985977 467.672302,213.302505 482.929047,228.366959 
	C487.158691,232.543289 490.447754,236.739670 488.033569,243.077408 
	C488.033569,243.077408 488.003357,243.016174 487.820923,243.096039 
	C487.354095,243.330856 487.162415,243.562469 487.063416,243.870758 
	C474.933228,250.494431 462.803070,257.118103 449.988281,263.909424 
	C442.993958,267.415100 436.639313,270.671753 430.390991,274.121002 
	C426.510681,276.263062 422.791504,278.697021 419.000000,281.000000 
z"/>
<path fill="#D39C72" opacity="1.000000" stroke="none" 
	d="
M419.003906,281.468628 
	C422.791504,278.697021 426.510681,276.263062 430.390991,274.121002 
	C436.639313,270.671753 442.993958,267.415100 449.665833,264.044556 
	C450.012756,310.228973 449.936676,356.446167 450.065308,402.662720 
	C450.080078,407.972900 448.205688,411.417114 443.564697,413.803680 
	C435.236389,418.086395 427.012329,422.571777 418.385620,427.040955 
	C418.354248,424.325867 418.964081,421.542603 418.967651,418.758545 
	C419.026306,373.151520 419.008453,327.544403 419.003906,281.468628 
z"/>
<path fill="#E2AE83" opacity="1.000000" stroke="none" 
	d="
M488.391174,243.017151 
	C490.447754,236.739670 487.158691,232.543289 482.929047,228.366959 
	C467.672302,213.302505 452.663269,197.985977 437.310730,183.021103 
	C435.165894,180.930450 431.625397,180.271637 428.508606,178.635437 
	C434.521027,174.878113 440.755829,171.435349 446.990662,167.992584 
	C448.660736,167.991333 450.330841,167.990067 452.415955,167.980560 
	C457.027924,171.969604 461.298798,175.892502 465.408020,179.978012 
	C478.278503,192.774200 491.096741,205.623016 503.917938,218.468658 
	C511.557953,226.123184 510.644897,231.575348 500.999847,236.489807 
	C496.885834,238.586014 492.830658,240.797668 488.391174,243.017151 
z"/>
<path fill="#E2AE83" opacity="1.000000" stroke="none" 
	d="
M487.297363,243.825867 
	C487.162415,243.562469 487.354095,243.330856 487.855042,243.094696 
	C487.988861,243.337860 487.808777,243.593704 487.297363,243.825867 
z"/>
<path fill="#FFD2A6" opacity="1.000000" stroke="none" 
	d="
M256.964844,273.171631 
	C256.974274,274.510681 256.983704,275.849731 256.993347,277.590302 
	C256.993530,277.991821 256.974426,278.479279 256.958954,278.722412 
	C255.276749,280.495514 253.552261,281.967682 251.952271,283.564545 
	C236.525894,298.960968 221.125488,314.383362 205.706390,329.787048 
	C200.028656,335.459076 198.376129,335.894836 191.384750,332.129120 
	C164.358810,317.572296 137.437607,302.821045 110.413696,288.260437 
	C95.223816,280.076050 79.909355,272.122955 64.281738,264.038300 
	C46.137810,254.427338 28.349401,244.869125 10.595447,235.247345 
	C3.691951,231.505997 3.099726,225.507156 9.164689,219.377762 
	C21.798059,206.610168 34.539917,193.949829 47.248955,181.257202 
	C51.602058,176.909714 55.990242,172.597351 60.662552,168.129761 
	C62.648182,168.008347 64.333664,168.026077 66.672493,168.324371 
	C87.661270,179.477020 108.034203,190.279694 128.321960,201.240051 
	C150.204865,213.062149 171.980392,225.082886 193.854446,236.921494 
	C212.528046,247.027954 231.314926,256.925842 249.944107,267.112762 
	C252.595825,268.562805 254.639664,271.124481 256.964844,273.171631 
z"/>
<path fill="#C48D69" opacity="1.000000" stroke="none" 
	d="
M257.231171,272.946106 
	C254.639664,271.124481 252.595825,268.562805 249.944107,267.112762 
	C231.314926,256.925842 212.528046,247.027954 193.854446,236.921494 
	C171.980392,225.082886 150.204865,213.062149 128.321960,201.240051 
	C108.034203,190.279694 87.661270,179.477020 67.092201,168.345413 
	C75.849960,163.086380 84.796898,158.004868 93.840538,153.101715 
	C130.232834,133.371201 166.643723,113.674866 203.071686,94.010246 
	C217.997665,85.952881 233.034302,78.099007 247.902908,69.938110 
	C251.012482,68.231361 253.604126,65.580971 256.700989,63.159824 
	C259.778534,65.206299 262.325897,67.944000 265.441345,69.635292 
	C296.400787,86.442345 327.465393,103.055565 358.477264,119.766197 
	C382.903015,132.927948 407.297607,146.147614 431.703552,159.346161 
	C436.672516,162.033340 441.630402,164.741058 446.792023,167.715942 
	C440.755829,171.435349 434.521027,174.878113 428.101685,178.606354 
	C417.470428,184.352554 406.972290,189.717529 396.587982,195.294418 
	C376.525177,206.069122 356.530518,216.970612 336.500427,227.806244 
	C311.794525,241.171356 287.060516,254.484924 262.411377,267.953918 
	C260.481445,269.008484 259.122070,271.107178 257.231171,272.946106 
z"/>
</svg>